@startuml
' hide the spot
' hide circle

' avoid problems with angled crows feet
skinparam linetype ortho

entity "_data" {
  *row_idx: integer <<generated>>
  --
  *metadata_index : float
  *time: float
  *latitude: float
  *longitude: float
  *altitude: float
  *var_index: float
  *value: float
  *data_height: float
  *data_error: float
  *flags: dictionary
  stop_time: float
  trash: float
}
note bottom of _data
2D numpy float-array

Daniel: Is metadata_index == station_id in metadata?
end note

entity "metadata" {
  *station_id: float
  --
  *var_info|variables : list_of_varnames|dictionary
  *instrument_name
  *latitude: float
  *longitude: float
  *altitude: float
  *station_name: string
  *country: string
  *data_id : string_for_documentation
}
note bottom of metadata
Dictionary of stations
end note

entity "meta_idx" {
  *station_id : float
  *var_name : string
  --
  *row_idxs : list(row_idx)
}
note right of meta_idx
Dictionary
end note

entity "var_idx" {
  *var_index: float
  --
  *var_name: string
}
note right of var_idx
Dictionary
end note

_data }o..|| metadata
_data }o..|| var_idx
meta_idx ||..o{ _data
metadata }o..o{ var_idx
meta_idx ||..|| metadata
'_data |o..o{
@enduml
